<?xml version="1.0" encoding="UTF-8"?>
<svg width="131px" height="121px" viewBox="0 0 131 121" version="1.1" xmlns="http://www.w3.org/2000/svg" xmlns:xlink="http://www.w3.org/1999/xlink">
    <!-- Generator: Sketch 63.1 (92452) - https://sketch.com -->
    <title>1_Kamere@2x</title>
    <desc>Created with Sketch.</desc>
    <g id="Welcome" stroke="none" stroke-width="1" fill="none" fill-rule="evenodd">
        <g id="1_Index-" transform="translate(-329.000000, -1595.000000)">
            <g id="1_Kamere" transform="translate(329.386954, 1595.890958)">
                <rect id="Rectangle" fill="#FFFFFF" fill-rule="nonzero" x="-8.38440428e-13" y="0" width="130" height="120"></rect>
                <g id="Group-13" transform="translate(15.000000, 11.000000)">
                    <path d="M21.7619,54.4387578 C21.8909,54.7397578 21.9509,54.9377578 22.0539,55.1107578 C24.3469,58.9757578 26.6419,62.8387578 28.9439,66.6987578 C29.7559,68.0607578 31.9079,68.5597578 33.3029,67.7247578 C39.0319,64.2967578 44.7599,60.8667578 50.4899,57.4397578 C58.3829,52.7187578 66.2779,48.0017578 74.1709,43.2807578 C75.5569,42.4517578 76.0959,40.3317578 75.2699,38.9447578 C73.4189,35.8407578 71.5599,32.7407578 69.7029,29.6407578 C68.7949,28.1247578 66.7239,27.6357578 65.1779,28.5567578 C51.5679,36.6577578 37.9569,44.7567578 24.3479,52.8587578 C23.4909,53.3687578 22.6459,53.8977578 21.7619,54.4387578 M59.1749,57.1687578 C55.9349,59.1047578 52.7709,60.9957578 49.6079,62.8867578 C44.4119,65.9957578 39.2279,69.1257578 34.0019,72.1837578 C33.4309,72.5177578 32.5799,72.6397578 31.9259,72.5127578 C30.1989,72.1777578 28.2149,72.0547578 26.8859,71.0877578 C25.5999,70.1507578 24.9829,68.2797578 24.1069,66.7987578 C22.3959,63.9017578 20.7099,60.9897578 19.0119,58.0857578 C18.7409,57.6237578 18.4579,57.1697578 18.1389,56.6417578 C14.6359,58.7557578 11.2359,60.8067578 7.7299,62.9217578 C7.0109,61.7247578 6.3269,60.5837578 5.5949,59.3657578 C5.9499,59.1207578 6.2369,58.8957578 6.5479,58.7117578 C11.8249,55.5877578 17.1199,52.4967578 22.3799,49.3447578 C36.4089,40.9377578 50.4259,32.5107578 64.4319,24.0667578 C65.2549,23.5707578 65.9849,23.5957578 66.9099,23.6857578 C70.5979,24.0477578 72.8929,25.9407578 74.4819,29.2807578 C75.9749,32.4187578 78.0349,35.2827578 79.7629,38.3147578 C80.0729,38.8587578 80.0949,39.6377578 80.0569,40.2977578 C79.8359,44.1927578 77.7199,46.5557578 74.2369,48.2487578 C70.6589,49.9887578 67.3489,52.2817578 63.9229,54.3347578 C63.5689,54.5477578 63.2269,54.7797578 62.8339,55.0317578 C63.7189,56.5247578 64.5519,57.9697578 65.4239,59.3897578 C66.8309,61.6827578 68.2409,63.9747578 69.7109,66.2267578 C69.9599,66.6087578 70.5169,67.0217578 70.9369,67.0257578 C75.4389,67.0777578 79.9419,67.0517578 84.4449,67.0427578 C84.6029,67.0417578 84.7619,66.9897578 85.0389,66.9417578 L85.0389,52.5347578 L89.2159,52.5347578 L89.2159,85.8177578 L85.0849,85.8177578 L85.0849,71.2787578 C84.4969,71.2787578 84.0479,71.2777578 83.5999,71.2787578 C78.7599,71.2817578 73.9199,71.2617578 69.0809,71.3087578 C68.1769,71.3177578 67.6539,71.0657578 67.1769,70.2647578 C64.8319,66.3257578 62.4139,62.4307578 60.0199,58.5207578 C59.7599,58.0957578 59.4929,57.6767578 59.1749,57.1687578" id="Fill-1" fill="#000000"></path>
                    <path d="M14.1305,65.4891578 C15.3905,64.7271578 16.4965,64.0581578 17.7325,63.3101578 C19.1625,65.6711578 20.5605,67.9811578 22.0045,70.3671578 C20.7615,71.1161578 19.6215,71.8041578 18.4005,72.5401578 C16.9785,70.1921578 15.5935,67.9051578 14.1305,65.4891578" id="Fill-3" fill="#000000"></path>
                    <text id="1" font-family="Roboto-Medium, Roboto" font-size="18" font-weight="400" fill="#FFD500">
                        <tspan x="43.3652" y="17">1</tspan>
                    </text>
                    <path d="M1.20792265e-12,39.5353578 L1.20792265e-12,13.9143578 L25.755,13.9143578 C25.793,14.4913578 25.831,15.0693578 25.869,15.6463578 L1.846,15.6463578 L1.846,39.5813578 C1.231,39.5663578 0.615,39.5503578 1.20792265e-12,39.5353578" id="Fill-42" stroke="#FFD500" fill="#FFD500"></path>
                    <path d="M99.1293,14.1274578 L99.1293,39.5584578 C98.6023,39.5924578 98.0763,39.6264578 97.5503,39.6594578 L97.5503,15.8414578 L73.2153,15.8414578 C73.2223,15.2704578 73.2283,14.6984578 73.2353,14.1274578 L99.1293,14.1274578 Z" id="Fill-43" stroke="#FFD500" fill="#FFD500"></path>
                    <path d="M1.8207,71.5736578 L1.8207,95.1556578 L25.9717,95.1556578 C25.9587,95.7726578 25.9447,96.3896578 25.9317,97.0066578 L0.1087,97.0066578 L0.1087,71.6126578 C0.6797,71.5996578 1.2497,71.5866578 1.8207,71.5736578" id="Fill-44" stroke="#FFD500" fill="#FFD500"></path>
                    <path d="M98.8858,96.8236578 L73.2398,96.8236578 C73.2418,96.3106578 73.2438,95.7986578 73.2468,95.2856578 L97.2038,95.2856578 L97.2038,71.4326578 C97.7648,71.4456578 98.3248,71.4586578 98.8858,71.4706578 L98.8858,96.8236578 Z" id="Fill-45" stroke="#FFD500" fill="#FFD500"></path>
                    <polygon id="Fill-56" fill="#FFD500" points="52.7576 48.9792578 49.5726 48.9732578 49.5676 52.1582578 47.8496 52.1582578 47.8556 48.9732578 44.6646 48.9672578 44.6646 47.2502578 47.8556 47.2562578 47.8616 44.0652578 49.5786 44.0712578 49.5726 47.2562578 52.7576 47.2622578"></polygon>
                </g>
            </g>
        </g>
    </g>
</svg>