<?xml version="1.0" encoding="UTF-8"?>
<svg width="129px" height="121px" viewBox="0 0 129 121" version="1.1" xmlns="http://www.w3.org/2000/svg" xmlns:xlink="http://www.w3.org/1999/xlink">
    <!-- Generator: Sketch 63.1 (92452) - https://sketch.com -->
    <title>2_Monitoring@2x</title>
    <desc>Created with Sketch.</desc>
    <g id="Welcome" stroke="none" stroke-width="1" fill="none" fill-rule="evenodd">
        <g id="1_Index-" transform="translate(-548.000000, -1595.000000)">
            <g id="2_Monitoring" transform="translate(548.000000, 1595.890958)">
                <rect id="Rectangle-Copy-7" fill="#FFFFFF" fill-rule="nonzero" x="-8.38440428e-13" y="0" width="128.835009" height="120"></rect>
                <g id="Group-39" transform="translate(9.917505, 12.000000)">
                    <path d="M104.494936,53.8397578 C71.8959357,24.2517578 33.3099357,25.6517578 4.15893569,54.1217578 C35.9659357,82.7397578 72.2439357,82.7917578 104.494936,53.8397578 M54.6959357,28.7027578 C74.2909357,29.3667578 90.9629357,37.8767578 106.045936,50.2797578 C110.228936,53.7197578 107.840936,55.8837578 104.949936,58.3707578 C74.9119357,84.2147578 40.8069357,85.6537578 8.54793569,62.3737578 C-2.87406431,54.1307578 -2.90606431,53.4737578 8.79393569,45.1717578 C22.4299357,35.4957578 37.2659357,29.0557578 54.6959357,28.7027578" id="Fill-5" fill="#000000"></path>
                    <path d="M4.57283569,37.7774578 L4.57283569,12.1564578 L30.3278357,12.1564578 C30.3658357,12.7334578 30.4038357,13.3114578 30.4418357,13.8884578 L6.41883569,13.8884578 L6.41883569,37.8234578 C5.80383569,37.8084578 5.18783569,37.7924578 4.57283569,37.7774578" id="Fill-7" stroke="#FFD500" fill="#FFD500"></path>
                    <path d="M103.702136,12.3696578 L103.702136,37.8006578 C103.175136,37.8346578 102.649136,37.8686578 102.123136,37.9016578 L102.123136,14.0836578 L77.7881357,14.0836578 L77.8081357,12.3696578 L103.702136,12.3696578 Z" id="Fill-9" stroke="#FFD500" fill="#FFD500"></path>
                    <path d="M6.39353569,69.8157578 L6.39353569,93.3977578 L30.5445357,93.3977578 C30.5315357,94.0147578 30.5175357,94.6317578 30.5045357,95.2487578 L4.68153569,95.2487578 L4.68153569,69.8547578 C5.25153569,69.8417578 5.82253569,69.8287578 6.39353569,69.8157578" id="Fill-11" stroke="#FFD500" fill="#FFD500"></path>
                    <path d="M103.458636,95.0657578 L77.8126357,95.0657578 C77.8146357,94.5527578 77.8166357,94.0407578 77.8196357,93.5277578 L101.776636,93.5277578 L101.776636,69.6747578 C102.337636,69.6877578 102.897636,69.7007578 103.458636,69.7127578 L103.458636,95.0657578 Z" id="Fill-13" stroke="#FFD500" fill="#FFD500"></path>
                    <path d="M54.1007357,38.9012858 C62.3847357,38.8763578 69.1557357,45.3673578 69.3627357,53.5333578 C69.5727357,61.8113578 62.5757357,68.9013578 54.1867357,68.9113685 C45.7587357,68.9213578 38.7767357,61.9163578 38.9517357,53.6243578 C39.1237357,45.4383578 45.8237357,38.9263578 54.1007357,38.9012858" id="Fill-15" fill="#000000"></path>
                    <path d="M77.3393357,66.6669578 C80.7293357,57.8129578 81.4893357,49.3409578 76.8233357,41.0999578 C81.3243357,41.8559578 82.4993357,43.5349578 83.2993357,50.2479578 C84.2763357,58.4549578 82.2583357,64.6729578 77.3393357,66.6669578" id="Fill-17" fill="#000000"></path>
                    <path d="M31.5849357,40.7170578 C27.0249357,49.1830578 27.3329357,57.6110578 30.8539357,66.1970578 C26.5669357,65.2730578 25.2079357,62.7520578 24.8949357,55.7930578 C24.4909357,46.8080578 26.3209357,42.4160578 31.5849357,40.7170578" id="Fill-19" fill="#000000"></path>
                    <text id="2" font-family="Roboto-Medium, Roboto" font-size="18" font-weight="400" fill="#FFD500">
                        <tspan x="48.2524149" y="17">2</tspan>
                    </text>
                    <polygon id="Fill-55" fill="#FFD500" points="58.2043357 54.1972578 55.0193357 54.1912578 55.0143357 57.3762578 53.2963357 57.3762578 53.3023357 54.1912578 50.1113357 54.1852578 50.1113357 52.4682578 53.3023357 52.4742578 53.3083357 49.2832578 55.0253357 49.2892578 55.0193357 52.4742578 58.2043357 52.4792578"></polygon>
                </g>
            </g>
        </g>
    </g>
</svg>