<?xml version="1.0" encoding="UTF-8"?>
<svg width="131px" height="123px" viewBox="0 0 131 123" version="1.1" xmlns="http://www.w3.org/2000/svg" xmlns:xlink="http://www.w3.org/1999/xlink">
    <!-- Generator: Sketch 63.1 (92452) - https://sketch.com -->
    <title>3_sklasistenje@2x</title>
    <desc>Created with Sketch.</desc>
    <g id="Welcome" stroke="none" stroke-width="1" fill="none" fill-rule="evenodd">
        <g id="1_Index-" transform="translate(-773.000000, -1595.000000)">
            <g id="3_sklasistenje" transform="translate(773.991530, 1595.890958)">
                <rect id="Rectangle-Copy-8" fill="#FFFFFF" fill-rule="nonzero" x="0" y="0" width="130" height="122"></rect>
                <g id="Group-37" transform="translate(15.000000, 12.000000)">
                    <text id="3" font-family="Roboto-Medium, Roboto" font-size="18" font-weight="400" fill="#FFD500">
                        <tspan x="43.0089368" y="17">3</tspan>
                    </text>
                    <path d="M61.0563,53.9947578 C63.5433,53.4987578 65.9743,53.0177578 68.4003,52.5167578 C68.5093,52.4947578 68.6543,52.2877578 68.6573,52.1647578 C68.6773,51.1127578 68.6703,50.0597578 68.6663,49.0077578 C68.6663,48.9137578 68.6343,48.8197578 68.6103,48.6857578 C66.0693,49.1947578 63.5603,49.6977578 61.0563,50.1997578 L61.0563,53.9947578 Z M68.6313,58.1847578 L68.6313,54.3847578 C66.0763,54.8967578 63.5663,55.4007578 61.0703,55.9017578 L61.0703,59.6977578 C63.6113,59.1887578 66.1123,58.6887578 68.6313,58.1847578 L68.6313,58.1847578 Z M61.0653,67.3097578 L61.0653,71.1027578 C63.6253,70.5947578 66.1503,70.0947578 68.6483,69.5987578 L68.6483,65.7877578 C66.0743,66.3037578 63.5673,66.8077578 61.0653,67.3097578 L61.0653,67.3097578 Z M61.0383,65.4057578 C63.5353,64.9087578 65.9663,64.4207578 68.3983,63.9447578 C68.6573,63.8947578 68.6733,63.7447578 68.6713,63.5397578 C68.6673,62.6777578 68.6693,61.8147578 68.6693,60.9527578 L68.6693,60.0777578 C68.1183,60.1917578 67.6513,60.2917578 67.1833,60.3847578 C65.2533,60.7697578 63.3233,61.1487578 61.3963,61.5457578 C61.2633,61.5737578 61.0553,61.7287578 61.0533,61.8277578 C61.0293,62.9947578 61.0383,64.1617578 61.0383,65.4057578 L61.0383,65.4057578 Z M61.0663,44.0737578 L61.0663,48.2907578 C63.5343,47.7977578 65.9633,47.3067578 68.3953,46.8337578 C68.6983,46.7747578 68.6683,46.5877578 68.6683,46.3867578 C68.6703,45.3207578 68.6703,44.2537578 68.6703,43.1867578 C68.6703,42.9877578 68.6703,42.7887578 68.6703,42.5837578 C66.1083,43.0857578 63.6123,43.5747578 61.0663,44.0737578 L61.0663,44.0737578 Z M68.6693,71.4647578 C66.1163,71.9857578 63.5813,72.5037578 61.0573,73.0187578 L61.0573,80.0927578 C61.1493,80.0927578 61.2063,80.1017578 61.2603,80.0917578 C63.6193,79.6317578 65.9773,79.1687578 68.3363,78.7107578 C68.6353,78.6527578 68.6743,78.4617578 68.6733183,78.1987578 C68.6663,75.9827578 68.6693,73.7667578 68.6693,71.4647578 L68.6693,71.4647578 Z M50.5503,31.2857578 C47.7963,31.3937578 45.2203,31.4167578 42.6593,31.6187578 C40.2463,31.8087578 37.8403,32.1377578 35.4443,32.4987578 C33.0613,32.8567578 30.7223,33.4337578 28.4713,34.3217578 C27.3543,34.7627578 26.2673,35.2657578 25.3963,36.1277578 C24.7733,36.7457578 24.7703,37.3837578 25.3803,38.0027578 C26.3293,38.9657578 27.5383,39.4877578 28.7683,39.9547578 C31.0513,40.8217578 33.4263,41.3357578 35.8293,41.7427578 C39.5263,42.3677578 43.2533,42.6427578 46.9943,42.7677578 C50.3293,42.8777578 53.6573,42.7557578 56.9853,42.5167578 C59.8263,42.3127578 62.6473,41.9507578 65.4353,41.3847578 C66.8723,41.0927578 68.2953,40.6897578 69.6863,40.2237578 C70.7583,39.8657578 71.7893,39.3667578 72.8023,38.8587578 C73.2473,38.6357578 73.6333,38.2647578 73.9923,37.9067578 C74.4943,37.4077578 74.4913,36.7847578 74.0113,36.2627578 C73.7653,35.9967578 73.4843,35.7547578 73.1863,35.5487578 C71.6733,34.5027578 69.9503,33.9397578 68.2053,33.4497578 C65.1033,32.5797578 61.9293,32.0767578 58.7283,31.7957578 C55.9493,31.5517578 53.1583,31.4437578 50.5503,31.2857578 L50.5503,31.2857578 Z M24.9013,40.1217578 L24.9013,40.6427578 C24.9013,43.8137578 24.9013,46.9847578 24.9013,50.1567578 C24.9013,55.0387578 24.9013,59.9197578 24.9013,64.8017578 C24.9003,68.1217578 24.9063,71.4407578 24.8952959,74.7597578 C24.8943,75.3107578 25.0763,75.7527578 25.4693,76.1267578 C26.2673,76.8877578 27.2393,77.3587578 28.2423,77.7677578 C30.7423,78.7897578 33.3643,79.3597578 36.0163,79.7947578 C38.9153,80.2707578 41.8343,80.5497578 44.7693,80.6997578 C49.2163,80.9267578 53.6543,80.7997578 58.0903,80.4857578 C59.1773,80.4087578 59.1753,80.3837578 59.1753,79.3067578 C59.1753,67.7697578 59.1753,56.2317578 59.1753,44.6947578 L59.1753,44.2187578 C58.8673,44.2347578 58.6083,44.2447578 58.3503,44.2627578 C56.7473,44.3707578 55.1453,44.5457578 53.5403,44.5737578 C50.7643,44.6237578 47.9833,44.6547578 45.2093,44.5557578 C42.9353,44.4747578 40.6593,44.2657578 38.4013,43.9767578 C36.3513,43.7157578 34.3213,43.2847578 32.2873,42.9027578 C30.3133,42.5317578 28.4163,41.9057578 26.5983,41.0537578 C26.0373,40.7907578 25.5083,40.4577578 24.9013,40.1217578 L24.9013,40.1217578 Z M76.1393,62.3227578 C76.1703,62.4567578 76.2283,62.5907578 76.2283,62.7247578 C76.2333,66.8477578 76.2343,70.9707578 76.2333,75.0937578 C76.2323,76.1367578 75.7193,76.9297578 74.9763,77.5967578 C73.6993,78.7437578 72.1513,79.3957578 70.5593,79.9467578 C67.5653,80.9817578 64.4673,81.5487578 61.3363,81.9627578 C56.5153,82.6007578 51.6713,82.7857578 46.8173,82.6517578 C42.8603,82.5417578 38.9163,82.2267578 35.0153,81.5207578 C32.5003,81.0657578 30.0103,80.5077578 27.6353,79.5327578 C26.2503,78.9637578 24.9123,78.3167578 23.8933,77.1657578 C23.3503,76.5527578 23.0433,75.8467578 23.0453,75.0177578 C23.0543,70.7487578 23.0683,66.4807578 23.0693,62.2117578 C23.0693,59.0257578 23.0453,55.8397578 23.0423,52.6527578 C23.0373,47.7427578 23.1033,42.8307578 23.0103,37.9227578 C22.9743,35.9837578 23.8313,34.7437578 25.3573,33.7907578 C27.1883,32.6477578 29.2153,31.9957578 31.2853,31.4687578 C34.9743,30.5287578 38.7333,30.0347578 42.5263,29.7577578 C45.7083,29.5247578 48.8923,29.4327578 52.0783,29.5227578 C55.5103,29.6187578 58.9323,29.8477578 62.3343,30.3557578 C65.2123,30.7857578 68.0583,31.3457578 70.8063,32.3207578 C72.1713,32.8047578 73.4953,33.3847578 74.6453,34.2967578 C75.7003,35.1327578 76.2683,36.1567578 76.2516708,37.5697578 C76.2013,41.8537578 76.2333,46.1377578 76.2283,50.4217578 C76.2283,50.5847578 76.1703,50.7477578 76.1393,50.9117578 C75.5843,50.3557578 75.0293,49.7997578 74.4753,49.2447578 C74.4453,49.0767578 74.3913,48.9077578 74.3913,48.7397578 C74.3853,46.0487578 74.3873,43.3587578 74.3873,40.6677578 L74.3873,40.0987578 C74.1953,40.2067578 74.1003,40.2667578 73.9993,40.3157578 C73.0043,40.8017578 72.0203,41.3147578 71.0053,41.7547578 C70.6543,41.9057578 70.5193,42.0457578 70.5203,42.4337578 C70.5303,54.1017578 70.5283,65.7707578 70.5283,77.4387578 L70.5283,77.9597578 C71.6853,77.5447578 72.6953,77.0427578 73.6003,76.3337578 C74.2023,75.8617578 74.4063,75.2587578 74.3993,74.4927578 C74.3703,71.1737578 74.3853,67.8547578 74.3913,64.5347578 C74.3913,64.3527578 74.4473,64.1697578 74.4783,63.9877578 C75.0313,63.4327578 75.5853,62.8777578 76.1393,62.3227578 L76.1393,62.3227578 Z" id="Fill-39" fill="#000000"></path>
                    <path d="M61.0563,53.9947578 C63.5433,53.4987578 65.9743,53.0177578 68.4003,52.5167578 C68.5093,52.4947578 68.6543,52.2877578 68.6573,52.1647578 C68.6773,51.1127578 68.6703,50.0597578 68.6663,49.0077578 C68.6663,48.9137578 68.6343,48.8197578 68.6103,48.6857578 C66.0693,49.1947578 63.5603,49.6977578 61.0563,50.1997578 L61.0563,53.9947578 Z M68.6313,58.1847578 L68.6313,54.3847578 C66.0763,54.8967578 63.5663,55.4007578 61.0703,55.9017578 L61.0703,59.6977578 C63.6113,59.1887578 66.1123,58.6887578 68.6313,58.1847578 Z M61.0653,67.3097578 L61.0653,71.1027578 C63.6253,70.5947578 66.1503,70.0947578 68.6483,69.5987578 L68.6483,65.7877578 C66.0743,66.3037578 63.5673,66.8077578 61.0653,67.3097578 Z M61.0383,65.4057578 C63.5353,64.9087578 65.9663,64.4207578 68.3983,63.9447578 C68.6573,63.8947578 68.6733,63.7447578 68.6713,63.5397578 C68.6673,62.6777578 68.6693,61.8147578 68.6693,60.9527578 L68.6693,60.0777578 C68.1183,60.1917578 67.6513,60.2917578 67.1833,60.3847578 C65.2533,60.7697578 63.3233,61.1487578 61.3963,61.5457578 C61.2633,61.5737578 61.0553,61.7287578 61.0533,61.8277578 C61.0293,62.9947578 61.0383,64.1617578 61.0383,65.4057578 Z M61.0663,44.0737578 L61.0663,48.2907578 C63.5343,47.7977578 65.9633,47.3067578 68.3953,46.8337578 C68.6983,46.7747578 68.6683,46.5877578 68.6683,46.3867578 C68.6703,45.3207578 68.6703,44.2537578 68.6703,43.1867578 C68.6703,42.9877578 68.6703,42.7887578 68.6703,42.5837578 C66.1083,43.0857578 63.6123,43.5747578 61.0663,44.0737578 Z M68.6693,71.4647578 C66.1163,71.9857578 63.5813,72.5037578 61.0573,73.0187578 L61.0573,80.0927578 C61.1493,80.0927578 61.2063,80.1017578 61.2603,80.0917578 C63.6193,79.6317578 65.9773,79.1687578 68.3363,78.7107578 C68.6353,78.6527578 68.6743,78.4617578 68.6733183,78.1987578 C68.6663,75.9827578 68.6693,73.7667578 68.6693,71.4647578 Z M50.5503,31.2857578 C47.7963,31.3937578 45.2203,31.4167578 42.6593,31.6187578 C40.2463,31.8087578 37.8403,32.1377578 35.4443,32.4987578 C33.0613,32.8567578 30.7223,33.4337578 28.4713,34.3217578 C27.3543,34.7627578 26.2673,35.2657578 25.3963,36.1277578 C24.7733,36.7457578 24.7703,37.3837578 25.3803,38.0027578 C26.3293,38.9657578 27.5383,39.4877578 28.7683,39.9547578 C31.0513,40.8217578 33.4263,41.3357578 35.8293,41.7427578 C39.5263,42.3677578 43.2533,42.6427578 46.9943,42.7677578 C50.3293,42.8777578 53.6573,42.7557578 56.9853,42.5167578 C59.8263,42.3127578 62.6473,41.9507578 65.4353,41.3847578 C66.8723,41.0927578 68.2953,40.6897578 69.6863,40.2237578 C70.7583,39.8657578 71.7893,39.3667578 72.8023,38.8587578 C73.2473,38.6357578 73.6333,38.2647578 73.9923,37.9067578 C74.4943,37.4077578 74.4913,36.7847578 74.0113,36.2627578 C73.7653,35.9967578 73.4843,35.7547578 73.1863,35.5487578 C71.6733,34.5027578 69.9503,33.9397578 68.2053,33.4497578 C65.1033,32.5797578 61.9293,32.0767578 58.7283,31.7957578 C55.9493,31.5517578 53.1583,31.4437578 50.5503,31.2857578 Z M24.9013,40.1217578 L24.9013,40.6427578 C24.9013,43.8137578 24.9013,46.9847578 24.9013,50.1567578 C24.9013,55.0387578 24.9013,59.9197578 24.9013,64.8017578 C24.9003,68.1217578 24.9063,71.4407578 24.8952959,74.7597578 C24.8943,75.3107578 25.0763,75.7527578 25.4693,76.1267578 C26.2673,76.8877578 27.2393,77.3587578 28.2423,77.7677578 C30.7423,78.7897578 33.3643,79.3597578 36.0163,79.7947578 C38.9153,80.2707578 41.8343,80.5497578 44.7693,80.6997578 C49.2163,80.9267578 53.6543,80.7997578 58.0903,80.4857578 C59.1773,80.4087578 59.1753,80.3837578 59.1753,79.3067578 C59.1753,67.7697578 59.1753,56.2317578 59.1753,44.6947578 L59.1753,44.2187578 C58.8673,44.2347578 58.6083,44.2447578 58.3503,44.2627578 C56.7473,44.3707578 55.1453,44.5457578 53.5403,44.5737578 C50.7643,44.6237578 47.9833,44.6547578 45.2093,44.5557578 C42.9353,44.4747578 40.6593,44.2657578 38.4013,43.9767578 C36.3513,43.7157578 34.3213,43.2847578 32.2873,42.9027578 C30.3133,42.5317578 28.4163,41.9057578 26.5983,41.0537578 C26.0373,40.7907578 25.5083,40.4577578 24.9013,40.1217578 Z M76.1393,62.3227578 C76.1703,62.4567578 76.2283,62.5907578 76.2283,62.7247578 C76.2333,66.8477578 76.2343,70.9707578 76.2333,75.0937578 C76.2323,76.1367578 75.7193,76.9297578 74.9763,77.5967578 C73.6993,78.7437578 72.1513,79.3957578 70.5593,79.9467578 C67.5653,80.9817578 64.4673,81.5487578 61.3363,81.9627578 C56.5153,82.6007578 51.6713,82.7857578 46.8173,82.6517578 C42.8603,82.5417578 38.9163,82.2267578 35.0153,81.5207578 C32.5003,81.0657578 30.0103,80.5077578 27.6353,79.5327578 C26.2503,78.9637578 24.9123,78.3167578 23.8933,77.1657578 C23.3503,76.5527578 23.0433,75.8467578 23.0453,75.0177578 C23.0543,70.7487578 23.0683,66.4807578 23.0693,62.2117578 C23.0693,59.0257578 23.0453,55.8397578 23.0423,52.6527578 C23.0373,47.7427578 23.1033,42.8307578 23.0103,37.9227578 C22.9743,35.9837578 23.8313,34.7437578 25.3573,33.7907578 C27.1883,32.6477578 29.2153,31.9957578 31.2853,31.4687578 C34.9743,30.5287578 38.7333,30.0347578 42.5263,29.7577578 C45.7083,29.5247578 48.8923,29.4327578 52.0783,29.5227578 C55.5103,29.6187578 58.9323,29.8477578 62.3343,30.3557578 C65.2123,30.7857578 68.0583,31.3457578 70.8063,32.3207578 C72.1713,32.8047578 73.4953,33.3847578 74.6453,34.2967578 C75.7003,35.1327578 76.2683,36.1567578 76.2516708,37.5697578 C76.2013,41.8537578 76.2333,46.1377578 76.2283,50.4217578 C76.2283,50.5847578 76.1703,50.7477578 76.1393,50.9117578 C75.5843,50.3557578 75.0293,49.7997578 74.4753,49.2447578 C74.4453,49.0767578 74.3913,48.9077578 74.3913,48.7397578 C74.3853,46.0487578 74.3873,43.3587578 74.3873,40.6677578 L74.3873,40.0987578 C74.1953,40.2067578 74.1003,40.2667578 73.9993,40.3157578 C73.0043,40.8017578 72.0203,41.3147578 71.0053,41.7547578 C70.6543,41.9057578 70.5193,42.0457578 70.5203,42.4337578 C70.5303,54.1017578 70.5283,65.7707578 70.5283,77.4387578 L70.5283,77.9597578 C71.6853,77.5447578 72.6953,77.0427578 73.6003,76.3337578 C74.2023,75.8617578 74.4063,75.2587578 74.3993,74.4927578 C74.3703,71.1737578 74.3853,67.8547578 74.3913,64.5347578 C74.3913,64.3527578 74.4473,64.1697578 74.4783,63.9877578 C75.0313,63.4327578 75.5853,62.8777578 76.1393,62.3227578 Z" id="Stroke-40" stroke="#000000" stroke-width="1.004"></path>
                    <path d="M76.139,62.3225578 C75.585,62.8775578 75.032,63.4325578 74.478,63.9875578 C74.448,63.8375578 74.391,63.6885578 74.391,63.5395578 C74.386,58.9245578 74.386,54.3095578 74.391,49.6955578 C74.391,49.5445578 74.446,49.3945578 74.475,49.2445578 C75.03,49.8005578 75.584,50.3555578 76.139,50.9115578 C76.17,51.0795578 76.229,51.2465578 76.229,51.4145578 C76.235,54.8825578 76.235,58.3515578 76.229,61.8195578 C76.229,61.9875578 76.17,62.1545578 76.139,62.3225578" id="Fill-41" fill="#000000"></path>
                    <path d="M1.22213351e-12,40.1653578 L1.22213351e-12,14.5443578 L25.755,14.5443578 C25.793,15.1213578 25.831,15.6993578 25.869,16.2763578 L1.846,16.2763578 L1.846,40.2113578 C1.231,40.1963578 0.615,40.1803578 1.22213351e-12,40.1653578" id="Fill-46" stroke="#FFD500" fill="#FFD500"></path>
                    <path d="M99.1293,14.7574578 L99.1293,40.1884578 C98.6033,40.2224578 98.0763,40.2564578 97.5503,40.2894578 L97.5503,16.4714578 L73.2153,16.4714578 C73.2223,15.9004578 73.2283,15.3284578 73.2353,14.7574578 L99.1293,14.7574578 Z" id="Fill-47" stroke="#FFD500" fill="#FFD500"></path>
                    <path d="M1.8207,72.2036578 L1.8207,95.7856578 L25.9717,95.7856578 C25.9587,96.4026578 25.9447,97.0196578 25.9317,97.6366578 L0.1087,97.6366578 L0.1087,72.2426578 C0.6797,72.2296578 1.2497,72.2166578 1.8207,72.2036578" id="Fill-48" stroke="#FFD500" fill="#FFD500"></path>
                    <path d="M98.8857,97.4536578 L73.2397,97.4536578 C73.2417,96.9406578 73.2437,96.4286578 73.2467,95.9156578 L97.2037,95.9156578 L97.2037,72.0626578 C97.7647,72.0756578 98.3247,72.0886578 98.8857,72.1006578 L98.8857,97.4536578 Z" id="Fill-49" stroke="#FFD500" fill="#FFD500"></path>
                    <polygon id="Fill-54" fill="#FFD500" points="52.0685 58.5452578 48.8835 58.5392578 48.8785 61.7242578 47.1605 61.7242578 47.1665 58.5392578 43.9755 58.5332578 43.9755 56.8162578 47.1665 56.8222578 47.1725 53.6312578 48.8895 53.6372578 48.8835 56.8222578 52.0685 56.8282578"></polygon>
                </g>
            </g>
        </g>
    </g>
</svg>