<?xml version="1.0" encoding="UTF-8"?>
<svg width="130px" height="123px" viewBox="0 0 130 123" version="1.1" xmlns="http://www.w3.org/2000/svg" xmlns:xlink="http://www.w3.org/1999/xlink">
    <!-- Generator: Sketch 63.1 (92452) - https://sketch.com -->
    <title>4_analiza@2x</title>
    <desc>Created with Sketch.</desc>
    <g id="Welcome" stroke="none" stroke-width="1" fill="none" fill-rule="evenodd">
        <g id="1_Index-" transform="translate(-1000.000000, -1595.000000)">
            <g id="4_analiza" transform="translate(1000.983060, 1595.890958)">
                <rect id="Rectangle-Copy-9" fill="#FFFFFF" fill-rule="nonzero" x="-8.38440428e-13" y="0" width="128.835009" height="122"></rect>
                <g id="Group-34" transform="translate(14.417505, 12.000000)">
                    <g id="Group-25" transform="translate(31.397800, 32.636858)">
                        <path d="M10.1807,24.2773 L10.1857,22.5313 L8.5197,22.5243 L8.5137,24.2723 L10.1807,24.2773 Z M18.8907,39.1323 L18.8907,37.6163 L17.3797,37.6163 L17.3727,39.1273 L18.8907,39.1323 Z M18.8967,34.5813 L18.8967,33.0693 L17.3847,33.0693 L17.3797,34.5813 L18.8967,34.5813 Z M18.9257,14.4273 L18.9257,12.9163 L17.4137,12.9163 L17.4077,14.4273 L18.9257,14.4273 Z M18.9317,10.0413 L18.9317,8.5233 L17.4197,8.5233 L17.4137,10.0353 L18.9317,10.0413 Z M22.2017,24.2773 L22.2017,22.5593 L19.0177,22.5543 L19.0227,19.3693 L17.3047,19.3643 L17.2997,22.5543 L14.1097,22.5483 L14.1097,24.2653 L17.2997,24.2723 L17.2927,27.4563 L19.0107,27.4563 L19.0177,24.2723 L22.2017,24.2773 Z M27.6737,24.3203 L27.6767,22.5743 L26.0077,22.5713 L26.0067,24.3173 L27.6737,24.3203 Z M19.0457,0.7403 C25.1557,1.1183 35.4537,5.4083 35.4427088,15.7093 C35.4367,17.7893 35.3967,20.1143 35.1677,22.5773 L31.4857,22.5713 L31.4797,24.2893 L34.9837,24.2943 C34.4217,28.7273 33.1787,33.4923 30.4537,37.9773 C28.4957,41.1943 26.3197,43.6513 25.1387,44.9693 C23.5477,46.7453 21.3417,47.8383 18.9837,48.0503 L18.9877,44.1393 L17.2707,44.1393 L17.2647,48.0443 C16.2287,47.9533 15.2207,47.6903 14.2817,47.2723 C13.0847,46.7333 12.0087,45.9533 11.1137,44.9523 C9.9347,43.6283 7.7707,41.1653 5.8227,37.9423 C3.1077,33.4523 1.8767,28.6823 1.3267,24.2503 L5.1237,24.2553 L5.1287,22.5363 L1.1427,22.5313 C0.9257,20.0683 0.8907,17.7433 0.8907,15.6653 C0.9087,6.1523 11.2167,1.1703 17.3277,0.7463 L17.3227,4.6563 L19.0397,4.6563 L19.0457,0.7403 Z" id="Fill-21" fill="#000000"></path>
                        <polygon id="Fill-23" fill="#FFD300" points="22.202 22.5595 22.202 24.2775 19.017 24.2715 19.011 27.4565 17.293 27.4565 17.3 24.2715 14.109 24.2655 14.109 22.5485 17.3 22.5545 17.305 19.3635 19.023 19.3695 19.017 22.5545"></polygon>
                    </g>
                    <text id="4" font-family="Roboto-Medium, Roboto" font-size="18" font-weight="400" fill="#FFD500">
                        <tspan x="43.8886672" y="17">4</tspan>
                    </text>
                    <path d="M1.1937118e-12,40.1653578 L1.1937118e-12,14.5443578 L25.755,14.5443578 C25.793,15.1213578 25.831,15.6993578 25.869,16.2763578 L1.846,16.2763578 L1.846,40.2113578 C1.231,40.1963578 0.615,40.1803578 1.1937118e-12,40.1653578" id="Fill-50" stroke="#FFD500" fill="#FFD500"></path>
                    <path d="M99.1292,14.7574578 L99.1292,40.1884578 C98.6032,40.2224578 98.0762,40.2564578 97.5502,40.2894578 L97.5502,16.4714578 L73.2152,16.4714578 C73.2222,15.9004578 73.2282,15.3284578 73.2352,14.7574578 L99.1292,14.7574578 Z" id="Fill-51" stroke="#FFD500" fill="#FFD500"></path>
                    <path d="M1.8207,72.2036578 L1.8207,95.7856578 L25.9717,95.7856578 C25.9587,96.4026578 25.9447,97.0196578 25.9317,97.6366578 L0.1087,97.6366578 L0.1087,72.2426578 C0.6787,72.2296578 1.2497,72.2166578 1.8207,72.2036578" id="Fill-52" stroke="#FFD500" fill="#FFD500"></path>
                    <path d="M98.8858,97.4536578 L73.2398,97.4536578 C73.2418,96.9406578 73.2438,96.4286578 73.2468,95.9156578 L97.2038,95.9156578 L97.2038,72.0626578 L98.8858,72.1006578 L98.8858,97.4536578 Z" id="Fill-53" stroke="#FFD500" fill="#FFD500"></path>
                </g>
            </g>
        </g>
    </g>
</svg>