<?xml version="1.0" encoding="UTF-8"?>
<svg width="112px" height="68px" viewBox="0 0 112 68" version="1.1" xmlns="http://www.w3.org/2000/svg" xmlns:xlink="http://www.w3.org/1999/xlink">
    <!-- Generator: Sketch 63.1 (92452) - https://sketch.com -->
    <title>Flag2@2x</title>
    <desc>Created with Sketch.</desc>
    <g id="Welcome" stroke="none" stroke-width="1" fill="none" fill-rule="evenodd">
        <g id="6_Tuđa-iskustva-" transform="translate(-336.000000, -1078.000000)">
            <g id="Flag-" transform="translate(336.000000, 1078.000000)">
                <g id="Group-3">
                    <rect id="Rectangle" fill="#FFD500" fill-rule="nonzero" x="0" y="0" width="112" height="68"></rect>
                    <g id="China" transform="translate(12.000000, 10.000000)" fill="#032B43" fill-rule="nonzero">
                        <path d="M0,0 L0,47 L90,47 L90,0 L0,0 Z M14.7255333,17.9573292 L10.8862987,15.1971236 L7.047064,17.9573292 L8.5138113,13.4917417 L4.67457664,10.7315361 L9.42027711,10.7315361 L10.8862987,6.26666667 L12.353046,10.7322542 L17.0987464,10.7322542 L13.2595118,13.4924597 L14.7255333,17.9573292 Z M20.1309435,4.85209722 L21.5868045,5.46459861 L22.6253574,4.28411528 L22.4867385,5.84301389 L23.9425995,6.45551528 L22.4010996,6.80664444 L22.2624808,8.36554306 L21.4489114,7.02349722 L19.9074115,7.37462639 L20.9459644,6.19414306 L20.1309435,4.85209722 Z M22.3488454,23.4231681 L21.479393,22.1155889 L19.9538597,22.5299069 L20.9423356,21.3077764 L20.0728832,20.0001972 L21.5534198,20.5523819 L22.5418958,19.3302514 L22.4678689,20.8934583 L23.9484055,21.4456431 L22.4228722,21.8599611 L22.3488454,23.4231681 Z M25.1683967,8.64127639 L26.2700902,9.76431528 L27.6903893,9.07498194 L26.9508467,10.458675 L28.0525401,11.5817139 L26.4943479,11.3131611 L25.7548054,12.6968542 L25.5305476,11.1472903 L23.9723554,10.8787375 L25.3926545,10.1894042 L25.1683967,8.64127639 Z M27.4690345,18.7335472 L26.1568727,17.8596736 L24.9114801,18.8247403 L25.3462063,17.3196958 L24.0340444,16.4458222 L25.614735,16.3898139 L26.0494612,14.8847694 L26.5915989,16.3546292 L28.1722894,16.2986208 L26.9268969,17.2636875 L27.4690345,18.7335472 Z" id="Shape"></path>
                    </g>
                </g>
            </g>
        </g>
    </g>
</svg>