<svg id="Layer_1" data-name="Layer 1" xmlns="http://www.w3.org/2000/svg" viewBox="0 0 682.75 739.71"><defs><style>.cls-1{fill:#fff;}</style></defs><title>hiljadekamlogo</title><path class="cls-1" d="M529,346.65c2.49-26.91,2.94-52.32,3-75C532.12,159,419.59,112.16,352.82,108l-.06,42.8H334l.06-42.74c-66.78,4.64-179.42,59.07-179.61,163,0,22.7.38,48.11,2.75,75l43.56.07L200.69,365l-41.49-.06c6,48.42,19.46,100.55,49.12,149.61,21.29,35.23,44.94,62.14,57.82,76.61a101.81,101.81,0,0,0,67.22,33.79l.06-42.68h18.77L352.14,625a102.64,102.64,0,0,0,67.26-33.66c12.9-14.41,36.68-41.25,58.07-76.42,29.79-49,43.37-101.06,49.51-149.5l-38.3-.07.07-18.76ZM256,365.23l-18.22-.07.07-19.08,18.21.06Zm79.1-172.15h16.52v16.58L335,209.6Zm-.06,48h16.52V257.6H334.92Zm16.14,286.48-16.59-.07.07-16.5h16.52Zm.06-49.74H334.61l.06-16.53h16.52ZM387.3,365.23l-34.8-.07-.06,34.8H333.67l.07-34.8-34.87-.06V346.33l34.87.07.06-34.87,18.77.07-.07,34.8,34.8.06Zm59.8.47-18.21,0V346.59l18.23,0Z"/></svg>