<svg id="Layer_1" data-name="Layer 1" xmlns="http://www.w3.org/2000/svg" viewBox="0 0 682.75 739.71"><defs><style>.cls-1{fill:#fff;}</style></defs><title>hiljadekamlogo</title><path d="M352.82,108c66.77,4.13,179.3,51,179.17,163.58-.06,22.72-.51,48.13-3,75l-40.24-.06-.07,18.76,38.3.07c-6.14,48.44-19.72,100.51-49.51,149.5-21.39,35.17-45.17,62-58.07,76.42A102.64,102.64,0,0,1,352.14,625l.05-42.74H333.42l-.06,42.68a101.81,101.81,0,0,1-67.22-33.79c-12.88-14.47-36.53-41.38-57.82-76.61-29.66-49.06-43.11-101.19-49.12-149.61l41.49.06.06-18.78-43.56-.07c-2.37-26.91-2.75-52.32-2.75-75,.19-104,112.83-158.39,179.61-163L334,150.83h18.77ZM447.1,365.7l0-19.08-18.23,0v19.08Zm-59.8-.47V346.46l-34.8-.06.07-34.8-18.77-.07-.06,34.87-34.87-.07V365.1l34.87.06-.07,34.8h18.77l.06-34.8ZM351.57,209.66V193.08H335.05L335,209.6Zm-.06,47.94V241.08H335l-.07,16.52Zm-.32,220.22V461.29H334.67l-.06,16.53Zm-.06,49.74V511H334.61l-.07,16.5ZM256,365.23l.06-19.09-18.21-.06-.07,19.08Z"/><polygon class="cls-1" points="387.3 346.46 387.3 365.23 352.5 365.16 352.44 399.96 333.67 399.96 333.74 365.16 298.87 365.1 298.87 346.33 333.74 346.4 333.8 311.53 352.57 311.6 352.5 346.4 387.3 346.46"/></svg>