<?xml version="1.0" encoding="utf-8"?>
<!-- Generator: Adobe Illustrator 23.0.2, SVG Export Plug-In . SVG Version: 6.00 Build 0)  -->
<svg version="1.1" id="Layer_1" xmlns="http://www.w3.org/2000/svg" xmlns:xlink="http://www.w3.org/1999/xlink" x="0px" y="0px"
	 viewBox="0 0 500 500" style="enable-background:new 0 0 500 500;" xml:space="preserve">
<style type="text/css">
	.st0{opacity:0.5;}
	.st1{fill:#F2F2F2;}
	.st2{fill:#B1B1B1;}
	.st3{fill:#E0E0E0;}
	.st4{opacity:0.19;fill:#808080;}
	.st5{fill:#CACACA;}
	.st6{fill:#808080;}
	.st7{fill:#333333;}
	.st8{fill:#EB1C24;}
	.st9{fill:#F0F0F0;}
</style>
<g>
	<g>
		<g class="st0">
			<path class="st1" d="M249.36,406.55c21-7.56,47.53-40.33,49.76-156.56c-2.28-118.98-30.02-150.51-51.24-157.06
				c-4.11-0.32-8.27-0.49-12.47-0.49c-2.03,0-4.04,0.05-6.05,0.13c-1.43,0.05-2.85,0.13-4.26,0.22
				c-82.1,5.31-147.05,73.58-147.05,157.02c0,83.34,64.79,151.54,146.75,157c1.03,0.07,2.06,0.13,3.09,0.18
				c2.5,0.12,5.01,0.18,7.53,0.18C240.11,407.18,244.76,406.96,249.36,406.55z"/>
		</g>
		<g>
			<ellipse class="st2" cx="245.8" cy="249.81" rx="54.76" ry="157.37"/>
		</g>
		<g>
			<ellipse class="st3" cx="233.73" cy="247.05" rx="112.73" ry="110.92"/>
		</g>
		<path class="st4" d="M225.09,92.51c0,0,62.63,8.56,64.29,157.21c0,0,1.65,138.65-64.6,156.82c0,0,80.2,27.76,74.33-156.82
			C299.12,249.72,313.62,74.59,225.09,92.51z"/>
		<path class="st5" d="M423.19,477.57V22.05c-4.12-0.97-8.35-1.51-12.63-1.58c-36.51-0.63-131.26,4.74-185.46,72.14
			c1.42-0.09,2.84-0.16,4.26-0.22c0.07-0.02,0.15-0.04,0.22-0.05c7.69-0.25,16.97,0.36,21.05,0.67
			c79.77,7.66,142.15,74.85,142.15,156.63c0,81.79-62.4,148.98-142.19,156.62c-2.83,0.23-13.8,1.04-22.55,0.61
			c-0.05-0.02-0.11-0.03-0.16-0.05c-1.03-0.05-2.06-0.11-3.09-0.18c54.15,67.76,149.19,73.15,185.77,72.52
			C414.84,479.07,419.07,478.54,423.19,477.57z"/>
	</g>
	<g>
		<path class="st5" d="M299.12,249.81c-2.23,116.23-28.76,149.01-49.76,156.56c80.38-7.06,143.42-74.54,143.42-156.75
			c0-82.71-63.82-150.52-144.9-156.88C269.09,99.3,296.83,130.83,299.12,249.81z"/>
	</g>
</g>
<g>
	<g>
		<path class="st6" d="M188.16,206.26c-24.62,0-44.66,18.3-44.66,40.79s20.03,40.79,44.66,40.79s44.66-18.3,44.66-40.79
			S212.78,206.26,188.16,206.26z"/>
	</g>
	<g>
		<circle class="st7" cx="188.16" cy="247.05" r="26.05"/>
	</g>
	<g>
		<circle class="st8" cx="188.16" cy="247.03" r="13.96"/>
	</g>
	<g>
		<circle class="st9" cx="203.25" cy="237.21" r="12.37"/>
	</g>
</g>
</svg>
