<?xml version="1.0" encoding="utf-8"?>
<!-- Generator: Adobe Illustrator 23.0.2, SVG Export Plug-In . SVG Version: 6.00 Build 0)  -->
<svg version="1.1" id="Layer_1" xmlns="http://www.w3.org/2000/svg" xmlns:xlink="http://www.w3.org/1999/xlink" x="0px" y="0px"
	 viewBox="0 0 500 500" style="enable-background:new 0 0 500 500;" xml:space="preserve">
<style type="text/css">
	.st0{opacity:0.5;}
	.st1{fill:#F2F2F2;}
	.st2{fill:#B1B1B1;}
	.st3{fill:#E0E0E0;}
	.st4{opacity:0.19;fill:#808080;}
	.st5{fill:#CACACA;}
	.st6{fill:#808080;}
	.st7{fill:#333333;}
	.st8{fill:#EB1C24;}
	.st9{fill:#F0F0F0;}
</style>
<g>
	<g>
		<g class="st0">
			<path class="st1" d="M407.36,251.06c-7.56-21-40.33-47.53-156.56-49.76c-118.98,2.28-150.51,30.02-157.06,51.24
				c-0.32,4.11-0.49,8.27-0.49,12.47c0,2.03,0.05,4.04,0.13,6.05c0.05,1.43,0.13,2.85,0.22,4.26
				c5.31,82.1,73.58,147.05,157.02,147.05c83.34,0,151.54-64.79,157-146.75c0.07-1.03,0.13-2.06,0.18-3.09
				c0.12-2.5,0.18-5.01,0.18-7.53C407.98,260.31,407.77,255.66,407.36,251.06z"/>
		</g>
		<g>
			<ellipse class="st2" cx="250.62" cy="254.62" rx="157.37" ry="54.76"/>
		</g>
		<g>
			<ellipse class="st3" cx="247.86" cy="288.59" rx="121.62" ry="110.92"/>
		</g>
		<path class="st4" d="M93.32,275.33c0,0,8.56-62.63,157.21-64.29c0,0,138.65-1.65,156.82,64.6c0,0,27.76-80.2-156.82-74.33
			C250.53,201.31,75.4,186.8,93.32,275.33z"/>
		<path class="st5" d="M478.38,77.23H22.86c-0.97,4.12-1.51,8.35-1.58,12.63c-0.63,36.51,4.74,131.26,72.14,185.46
			c-0.09-1.42-0.16-2.84-0.22-4.26c-0.02-0.07-0.04-0.15-0.05-0.22c-0.25-7.69,0.36-16.97,0.67-21.05
			c7.66-79.77,74.85-142.15,156.63-142.15c81.79,0,148.98,62.4,156.62,142.19c0.23,2.83,1.04,13.8,0.61,22.55
			c-0.02,0.05-0.03,0.11-0.05,0.16c-0.05,1.03-0.11,2.06-0.18,3.09c67.76-54.15,73.15-149.19,72.52-185.77
			C479.88,85.58,479.34,81.35,478.38,77.23z"/>
	</g>
	<g>
		<path class="st5" d="M250.62,201.31c116.23,2.23,149.01,28.76,156.56,49.76c-7.06-80.38-74.54-143.42-156.75-143.42
			c-82.71,0-150.52,63.82-156.88,144.9C100.1,231.33,131.64,203.59,250.62,201.31z"/>
	</g>
</g>
<g>
	<g>
		<path class="st6" d="M247.86,265.48c-24.62,0-44.66,18.3-44.66,40.79s20.03,40.79,44.66,40.79s44.66-18.3,44.66-40.79
			S272.48,265.48,247.86,265.48z"/>
	</g>
	<g>
		<circle class="st7" cx="247.86" cy="306.27" r="26.05"/>
	</g>
	<g>
		<circle class="st8" cx="247.86" cy="306.24" r="13.96"/>
	</g>
	<g>
		<circle class="st9" cx="262.96" cy="296.42" r="12.37"/>
	</g>
</g>
</svg>
