<?xml version="1.0" encoding="UTF-8"?>
<svg width="281px" height="52px" viewBox="0 0 281 52" version="1.1" xmlns="http://www.w3.org/2000/svg" xmlns:xlink="http://www.w3.org/1999/xlink">
    <!-- Generator: Sketch 63.1 (92452) - https://sketch.com -->
    <title>Group 4</title>
    <desc>Created with Sketch.</desc>
    <g id="Welcome" stroke="none" stroke-width="1" fill="none" fill-rule="evenodd">
        <g id="Hronologia-" transform="translate(-107.000000, -25.000000)">
            <g id="Group-4" transform="translate(107.000000, 25.800000)">
                <g id="Group-2-Copy" transform="translate(61.200000, 13.088143)" fill="#000000">
                    <path d="M1.76428125,22.032 L1.76428125,12.0200625 L13.6982813,12.0200625 L13.6982813,22.032 L15.4769063,22.032 L15.4769063,1.1475 L13.6982813,1.1475 L13.6982813,10.5283125 L1.76428125,10.5283125 L1.76428125,1.1475 L0,1.1475 L0,22.032 L1.76428125,22.032 Z M22.3045313,22.032 L22.3045313,6.5120625 L20.5832812,6.5120625 L20.5832812,22.032 L22.3045313,22.032 Z M28.8883125,22.032 L28.8883125,0 L27.1670625,0 L27.1670625,22.032 L28.8883125,22.032 Z M31.32675,28.3002188 C32.6655,28.3002188 33.679125,27.9225 34.367625,27.1670625 C35.056125,26.411625 35.400375,25.3167188 35.400375,23.8823438 L35.400375,23.8823438 L35.400375,6.5120625 L33.6934687,6.5120625 L33.6934687,23.8536563 C33.6934687,25.8139688 32.8424062,26.794125 31.1402812,26.794125 C30.7004063,26.794125 30.2700937,26.7319688 29.8493437,26.6076563 L29.8493437,26.6076563 L29.8206562,28.0276875 C30.3083437,28.209375 30.810375,28.3002188 31.32675,28.3002188 Z M44.4512813,22.318875 C45.4935938,22.318875 46.4809219,22.1061094 47.4132656,21.6805781 C48.3456094,21.2550469 49.113,20.6502188 49.7154375,19.8660938 C49.76325,20.8223438 49.8732187,21.5443125 50.0453438,22.032 L50.0453438,22.032 L51.8813437,22.032 L51.8813437,21.859875 C51.5657813,21.114 51.408,19.9904063 51.408,18.4890938 L51.408,18.4890938 L51.408,11.1450938 C51.3793125,9.59596875 50.8653281,8.38870313 49.8660469,7.52329688 C48.8667656,6.65789063 47.5017187,6.2251875 45.7709062,6.2251875 C44.0974687,6.2251875 42.687,6.67701563 41.5395,7.58067188 C40.392,8.48432813 39.81825,9.5529375 39.81825,10.7865 L39.81825,10.7865 L41.5395,10.8008438 C41.5395,9.94021875 41.9315625,9.20390625 42.7156875,8.59190625 C43.4998125,7.97990625 44.4895312,7.67390625 45.6848437,7.67390625 C46.9949062,7.67390625 47.9917969,7.99185938 48.6755156,8.62776563 C49.3592344,9.26367188 49.7010937,10.13625 49.7010937,11.2455 L49.7010937,11.2455 L49.7010937,13.0097813 L46.5885,13.0097813 C44.3413125,13.0097813 42.5889844,13.4496563 41.3315156,14.3294063 C40.0740469,15.2091563 39.4453125,16.4044688 39.4453125,17.9153438 C39.4453125,19.1871563 39.9067031,20.2390313 40.8294844,21.0709688 C41.7522656,21.9029063 42.9595312,22.318875 44.4512813,22.318875 Z M44.6520937,20.7984375 C43.6193437,20.7984375 42.7802344,20.5115625 42.1347656,19.9378125 C41.4892969,19.3640625 41.1665625,18.6420937 41.1665625,17.7719062 C41.1665625,16.7104687 41.6494687,15.8761406 42.6152812,15.2689219 C43.5810937,14.6617031 44.9198437,14.3485312 46.6315312,14.3294062 L46.6315312,14.3294062 L49.7010937,14.3294062 L49.7010937,17.7432187 C49.2899062,18.6707812 48.6324844,19.411875 47.7288281,19.9665 C46.8251719,20.521125 45.7995937,20.7984375 44.6520937,20.7984375 Z M61.2621562,22.318875 C63.3945937,22.318875 65.0106562,21.53475 66.1103437,19.9665 L66.1103437,19.9665 L66.1820625,22.032 L67.7885625,22.032 L67.7885625,0 L66.0816562,0 L66.0816562,8.70665625 C64.9819687,7.05234375 63.3850312,6.2251875 61.2908437,6.2251875 C59.4452812,6.2251875 57.9846094,6.93998437 56.9088281,8.36957813 C55.8330469,9.79917187 55.2951562,11.7188437 55.2951562,14.1285937 L55.2951562,14.1285937 L55.2951562,14.3294062 C55.2951562,16.7774062 55.8426094,18.7209844 56.9375156,20.1601406 C58.0324219,21.5992969 59.4739687,22.318875 61.2621562,22.318875 Z M61.5777188,20.827125 C60.1337812,20.827125 59.0149688,20.2557656 58.2212812,19.1130469 C57.4275937,17.9703281 57.03075,16.40925 57.03075,14.4298125 C57.03075,12.220875 57.432375,10.5498281 58.235625,9.41667188 C59.038875,8.28351563 60.1624688,7.7169375 61.6064062,7.7169375 C63.7005938,7.7169375 65.1923438,8.72578125 66.0816563,10.7434688 L66.0816563,10.7434688 L66.0816563,18.0300938 C65.1923438,19.8947813 63.6910313,20.827125 61.5777188,20.827125 Z M78.316875,22.318875 C80.7170625,22.318875 82.5482813,21.4056563 83.8105312,19.5792188 L83.8105312,19.5792188 L82.73475,18.761625 C82.161,19.4979375 81.5227031,20.0334375 80.8198594,20.368125 C80.1170156,20.7028125 79.3065938,20.8701563 78.3885937,20.8701563 C76.8585937,20.8701563 75.5891719,20.2844531 74.5803281,19.1130469 C73.5714844,17.9416406 73.0670625,16.4761875 73.0670625,14.7166875 L73.0670625,14.7166875 L73.0670625,14.3867813 L84.1404375,14.3867813 L84.1404375,13.42575 C84.1404375,11.1976875 83.5882031,9.44057813 82.4837344,8.15442188 C81.3792656,6.86826563 79.885125,6.2251875 78.0013125,6.2251875 C76.7964375,6.2251875 75.677625,6.56704688 74.644875,7.25076563 C73.612125,7.93448438 72.8064844,8.874 72.2279531,10.0693125 C71.6494219,11.264625 71.3601563,12.6081563 71.3601563,14.0999063 L71.3601563,14.0999063 L71.3601563,14.7166875 C71.3601563,16.160625 71.6565937,17.4635156 72.2494688,18.6253594 C72.8423437,19.7872031 73.6718906,20.69325 74.7381094,21.3435 C75.8043281,21.99375 76.99725,22.318875 78.316875,22.318875 Z M82.4335312,12.9237188 L73.1244375,12.9237188 C73.3156875,11.3267813 73.8535781,10.0549688 74.7381094,9.10828125 C75.6226406,8.16159375 76.710375,7.68825 78.0013125,7.68825 C79.3018125,7.68825 80.3536875,8.1568125 81.1569375,9.0939375 C81.9601875,10.0310625 82.3857187,11.2455 82.4335312,12.73725 L82.4335312,12.73725 L82.4335312,12.9237188 Z M96.3469687,22.032 L96.3469687,16.1080312 L98.3120625,14.2146562 L104.594625,22.032 L106.645781,22.032 L99.48825,13.0528125 L106.072031,6.5120625 L103.906125,6.5120625 L97.9678125,12.3499688 L96.3469687,14.0999063 L96.3469687,0 L94.6257187,0 L94.6257187,22.032 L96.3469687,22.032 Z M113.215219,22.318875 C114.257531,22.318875 115.244859,22.1061094 116.177203,21.6805781 C117.109547,21.2550469 117.876938,20.6502188 118.479375,19.8660938 C118.527188,20.8223438 118.637156,21.5443125 118.809281,22.032 L118.809281,22.032 L120.645281,22.032 L120.645281,21.859875 C120.329719,21.114 120.171938,19.9904063 120.171938,18.4890938 L120.171938,18.4890938 L120.171938,11.1450938 C120.14325,9.59596875 119.629266,8.38870313 118.629984,7.52329688 C117.630703,6.65789063 116.265656,6.2251875 114.534844,6.2251875 C112.861406,6.2251875 111.450937,6.67701563 110.303438,7.58067188 C109.155937,8.48432813 108.582188,9.5529375 108.582188,10.7865 L108.582188,10.7865 L110.303438,10.8008438 C110.303438,9.94021875 110.6955,9.20390625 111.479625,8.59190625 C112.26375,7.97990625 113.253469,7.67390625 114.448781,7.67390625 C115.758844,7.67390625 116.755734,7.99185938 117.439453,8.62776563 C118.123172,9.26367188 118.465031,10.13625 118.465031,11.2455 L118.465031,11.2455 L118.465031,13.0097813 L115.352438,13.0097813 C113.10525,13.0097813 111.352922,13.4496563 110.095453,14.3294063 C108.837984,15.2091563 108.20925,16.4044688 108.20925,17.9153438 C108.20925,19.1871563 108.670641,20.2390313 109.593422,21.0709688 C110.516203,21.9029063 111.723469,22.318875 113.215219,22.318875 Z M113.416031,20.7984375 C112.383281,20.7984375 111.544172,20.5115625 110.898703,19.9378125 C110.253234,19.3640625 109.9305,18.6420937 109.9305,17.7719062 C109.9305,16.7104687 110.413406,15.8761406 111.379219,15.2689219 C112.345031,14.6617031 113.683781,14.3485312 115.395469,14.3294062 L115.395469,14.3294062 L118.465031,14.3294062 L118.465031,17.7432187 C118.053844,18.6707812 117.396422,19.411875 116.492766,19.9665 C115.589109,20.521125 114.563531,20.7984375 113.416031,20.7984375 Z M126.382781,22.032 L126.382781,11.3889375 C126.755719,10.1745 127.329469,9.25889062 128.104031,8.64210938 C128.878594,8.02532812 129.806156,7.7169375 130.886719,7.7169375 C132.168094,7.7169375 133.117172,8.04445313 133.733953,8.69948438 C134.350734,9.35451563 134.663906,10.346625 134.673469,11.6758125 L134.673469,11.6758125 L134.673469,22.032 L136.394719,22.032 L136.394719,11.761875 C136.490344,10.6430625 136.963687,9.69398437 137.81475,8.91464063 C138.665812,8.13529687 139.708125,7.7360625 140.941687,7.7169375 C142.270875,7.7169375 143.229516,8.051625 143.817609,8.721 C144.405703,9.390375 144.704531,10.4183438 144.714094,11.8049063 L144.714094,11.8049063 L144.714094,22.032 L146.435344,22.032 L146.435344,11.6758125 C146.368406,8.0420625 144.671062,6.2251875 141.343312,6.2251875 C140.2245,6.2251875 139.201312,6.48576563 138.27375,7.00692188 C137.346187,7.52807813 136.605094,8.2715625 136.050469,9.237375 C135.390656,7.22925 133.83675,6.2251875 131.38875,6.2251875 C130.336875,6.2251875 129.380625,6.45946875 128.52,6.92803125 C127.659375,7.39659375 126.942187,8.0994375 126.368437,9.0365625 L126.368437,9.0365625 L126.311062,6.5120625 L124.661531,6.5120625 L124.661531,22.032 L126.382781,22.032 Z M156.791531,22.318875 C159.191719,22.318875 161.022937,21.4056563 162.285187,19.5792188 L162.285187,19.5792188 L161.209406,18.761625 C160.635656,19.4979375 159.997359,20.0334375 159.294516,20.368125 C158.591672,20.7028125 157.78125,20.8701563 156.86325,20.8701563 C155.33325,20.8701563 154.063828,20.2844531 153.054984,19.1130469 C152.046141,17.9416406 151.541719,16.4761875 151.541719,14.7166875 L151.541719,14.7166875 L151.541719,14.3867813 L162.615094,14.3867813 L162.615094,13.42575 C162.615094,11.1976875 162.062859,9.44057813 160.958391,8.15442188 C159.853922,6.86826563 158.359781,6.2251875 156.475969,6.2251875 C155.271094,6.2251875 154.152281,6.56704688 153.119531,7.25076563 C152.086781,7.93448438 151.281141,8.874 150.702609,10.0693125 C150.124078,11.264625 149.834812,12.6081563 149.834812,14.0999063 L149.834812,14.0999063 L149.834812,14.7166875 C149.834812,16.160625 150.13125,17.4635156 150.724125,18.6253594 C151.317,19.7872031 152.146547,20.69325 153.212766,21.3435 C154.278984,21.99375 155.471906,22.318875 156.791531,22.318875 Z M160.908188,12.9237188 L151.599094,12.9237188 C151.790344,11.3267813 152.328234,10.0549688 153.212766,9.10828125 C154.097297,8.16159375 155.185031,7.68825 156.475969,7.68825 C157.776469,7.68825 158.828344,8.1568125 159.631594,9.0939375 C160.434844,10.0310625 160.860375,11.2455 160.908188,12.73725 L160.908188,12.73725 L160.908188,12.9237188 Z M167.664094,22.032 L167.664094,11.3745937 C167.979656,10.2366562 168.507984,9.36885937 169.249078,8.77120312 C169.990172,8.17354687 170.896219,7.87471875 171.967219,7.87471875 C172.378406,7.87471875 172.765688,7.9081875 173.129063,7.975125 L173.129063,7.975125 L173.172094,6.41165625 C172.894781,6.28734375 172.517063,6.2251875 172.038938,6.2251875 C170.030813,6.2251875 168.572531,7.1431875 167.664094,8.9791875 L167.664094,8.9791875 L167.635406,6.5120625 L165.957188,6.5120625 L165.957188,22.032 L167.664094,22.032 Z M179.469,22.318875 C180.511313,22.318875 181.498641,22.1061094 182.430984,21.6805781 C183.363328,21.2550469 184.130719,20.6502188 184.733156,19.8660938 C184.780969,20.8223438 184.890938,21.5443125 185.063063,22.032 L185.063063,22.032 L186.899063,22.032 L186.899063,21.859875 C186.5835,21.114 186.425719,19.9904063 186.425719,18.4890938 L186.425719,18.4890938 L186.425719,11.1450938 C186.397031,9.59596875 185.883047,8.38870313 184.883766,7.52329688 C183.884484,6.65789063 182.519438,6.2251875 180.788625,6.2251875 C179.115187,6.2251875 177.704719,6.67701563 176.557219,7.58067188 C175.409719,8.48432813 174.835969,9.5529375 174.835969,10.7865 L174.835969,10.7865 L176.557219,10.8008438 C176.557219,9.94021875 176.949281,9.20390625 177.733406,8.59190625 C178.517531,7.97990625 179.50725,7.67390625 180.702562,7.67390625 C182.012625,7.67390625 183.009516,7.99185938 183.693234,8.62776563 C184.376953,9.26367188 184.718813,10.13625 184.718813,11.2455 L184.718813,11.2455 L184.718813,13.0097813 L181.606219,13.0097813 C179.359031,13.0097813 177.606703,13.4496563 176.349234,14.3294063 C175.091766,15.2091563 174.463031,16.4044688 174.463031,17.9153438 C174.463031,19.1871563 174.924422,20.2390313 175.847203,21.0709688 C176.769984,21.9029063 177.97725,22.318875 179.469,22.318875 Z M179.669813,20.7984375 C178.637063,20.7984375 177.797953,20.5115625 177.152484,19.9378125 C176.507016,19.3640625 176.184281,18.6420937 176.184281,17.7719062 C176.184281,16.7104687 176.667188,15.8761406 177.633,15.2689219 C178.598813,14.6617031 179.937563,14.3485312 181.64925,14.3294062 L181.64925,14.3294062 L184.718813,14.3294062 L184.718813,17.7432187 C184.307625,18.6707812 183.650203,19.411875 182.746547,19.9665 C181.842891,20.521125 180.817313,20.7984375 179.669813,20.7984375 Z M199.851469,22.032 L199.851469,11.3745937 C200.167031,10.2366562 200.695359,9.36885937 201.436453,8.77120312 C202.177547,8.17354687 203.083594,7.87471875 204.154594,7.87471875 C204.565781,7.87471875 204.953062,7.9081875 205.316437,7.975125 L205.316437,7.975125 L205.359469,6.41165625 C205.082156,6.28734375 204.704437,6.2251875 204.226313,6.2251875 C202.218187,6.2251875 200.759906,7.1431875 199.851469,8.9791875 L199.851469,8.9791875 L199.822781,6.5120625 L198.144563,6.5120625 L198.144563,22.032 L199.851469,22.032 Z M213.32025,22.318875 C215.022375,22.318875 216.401766,21.9268125 217.458422,21.1426875 C218.515078,20.3585625 219.043406,19.3114688 219.043406,18.0014063 C219.043406,17.1981563 218.861719,16.5144375 218.498344,15.95025 C218.134969,15.3860625 217.577953,14.9031563 216.827297,14.5015313 C216.076641,14.0999063 214.948266,13.7221875 213.442172,13.368375 C211.936078,13.0145625 210.898547,12.6248906 210.329578,12.1993594 C209.760609,11.7738281 209.476125,11.1737813 209.476125,10.3992188 C209.476125,9.59596875 209.817984,8.94332813 210.501703,8.44129688 C211.185422,7.93926563 212.091469,7.68825 213.219844,7.68825 C214.376906,7.68825 215.335547,7.98946875 216.095766,8.59190625 C216.855984,9.19434375 217.236094,9.94978125 217.236094,10.8582188 L217.236094,10.8582188 L218.957344,10.8582188 C218.957344,9.48121875 218.433797,8.36479688 217.386703,7.50895313 C216.339609,6.65310938 214.950656,6.2251875 213.219844,6.2251875 C211.622906,6.2251875 210.312844,6.62442188 209.289656,7.42289063 C208.266469,8.22135938 207.754875,9.23259375 207.754875,10.4565938 C207.754875,11.2311563 207.938953,11.8909688 208.307109,12.4360313 C208.675266,12.9810938 209.239453,13.4424844 209.999672,13.8202031 C210.759891,14.1979219 211.8285,14.5326094 213.2055,14.8242656 C214.5825,15.1159219 215.612859,15.5199375 216.296578,16.0363125 C216.980297,16.5526875 217.322156,17.2364063 217.322156,18.0874688 C217.322156,18.8907188 216.954,19.5553125 216.217687,20.08125 C215.481375,20.6071875 214.515562,20.8701563 213.32025,20.8701563 C212.038875,20.8701563 211.008516,20.5904531 210.229172,20.0310469 C209.449828,19.4716406 209.026687,18.6899063 208.95975,17.6858438 L208.95975,17.6858438 L207.2385,17.6858438 C207.2385,19.0245938 207.800297,20.1314531 208.923891,21.0064219 C210.047484,21.8813906 211.512937,22.318875 213.32025,22.318875 Z" id="Hiljadekamerars" fill-rule="nonzero"></path>
                    <rect id="Rectangle" x="86.9010959" y="19.1446918" width="2.448" height="2.448"></rect>
                    <rect id="Rectangle-Copy-7" x="20.2867549" y="0.859457008" width="2.448" height="2.448"></rect>
                    <rect id="Rectangle-Copy-8" x="33.26475" y="0.880133824" width="2.42732318" height="2.42732318"></rect>
                    <rect id="Rectangle-Copy-6" x="190.34475" y="19.1446918" width="2.448" height="2.448"></rect>
                </g>
                <g id="hiljadekamlogo-03-copy" fill-rule="nonzero">
                    <path d="M19.3513006,0 C25.850075,0.401976015 36.8027048,4.96386847 36.7900628,15.9213648 C36.784212,18.1327195 36.7404132,20.605894 36.4980596,23.2211714 L32.58147,23.2153315 L32.5746569,25.0412565 L36.3024248,25.0480696 C35.7048139,29.7627714 34.3830623,34.8307838 31.4835791,39.5990174 C29.4016743,43.02214 27.0871489,45.6335242 25.8315822,47.0370337 C24.1436787,48.9205906 21.8041727,50.0938219 19.2851157,50.32 L19.2899822,46.1600836 L17.4630839,46.1600836 L17.4572441,50.3141602 C14.9364655,50.0934572 12.5956208,48.9167666 10.9146708,47.025354 C9.66105068,45.6169779 7.35917834,42.9978074 5.28700658,39.5688449 C2.4001764,34.7937981 1.09107776,29.7199458 0.506119923,25.0071907 L4.54437292,25.0130306 L4.55021277,23.185159 L0.310485106,23.1783458 C0.0798112186,20.5591752 0.0428255319,18.0860008 0.0428255319,15.8785393 C0.0613183752,5.75614081 11.0246545,0.462321083 17.5244023,0.0136263056 L17.5195358,4.16867621 L19.346434,4.16867621 L19.3513006,0 Z M28.5276441,25.0821354 L28.5276441,23.2250646 L26.7533044,23.2250646 L26.7533044,25.0821354 L28.5276441,25.0821354 Z M22.707265,25.0363899 L22.707265,23.2094917 L19.3201547,23.2036518 L19.3269679,19.8165416 L17.5000696,19.8097284 L17.4942298,23.2036518 L14.1003064,23.1968387 L14.1003064,25.0237369 L17.4942298,25.0295768 L17.4874166,28.416687 L19.3143149,28.416687 L19.3201547,25.0295768 L22.707265,25.0363899 Z M19.2296371,9.89464449 L19.2296371,8.28090058 L17.6217331,8.28090058 L17.6168665,9.88880464 L19.2296371,9.89464449 Z M19.2237973,14.5606809 L19.2237973,12.9527768 L17.6168665,12.9527768 L17.6100534,14.5606809 L19.2237973,14.5606809 Z M19.1926515,35.9948596 L19.1926515,34.3859822 L17.5847474,34.3859822 L17.5789075,35.9948596 L19.1926515,35.9948596 Z M19.1868116,40.8360913 L19.1868116,39.224294 L17.5789075,39.224294 L17.5720944,40.8302515 L19.1868116,40.8360913 Z M9.92773694,25.0363899 L9.93357679,23.1783458 L8.16118375,23.172506 L8.1543706,25.0295768 L9.92773694,25.0363899 Z" id="Shape" fill="#000000"></path>
                    <polygon id="Path" fill="#FFD500" points="22.707265 23.2094917 22.707265 25.0363899 19.3201547 25.0295768 19.3143149 28.416687 17.4874166 28.416687 17.4942298 25.0295768 14.1003064 25.0237369 14.1003064 23.1968387 17.4942298 23.2036518 17.5000696 19.8097284 19.3269679 19.8165416 19.3201547 23.2036518"></polygon>
                </g>
            </g>
        </g>
    </g>
</svg>