<svg id="Layer_1" data-name="Layer 1" xmlns="http://www.w3.org/2000/svg" xmlns:xlink="http://www.w3.org/1999/xlink" viewBox="0 0 930.95 768"><defs><style>.cls-1{fill:none;}.cls-2{fill:#f2f2f2;}.cls-3{fill:#ccc;}.cls-4{fill:#e6e6e6;}.cls-5{fill:url(#kam10000);}</style><pattern id="kam10000" data-name="kam10000" width="762.62" height="1063.56" patternTransform="translate(-2114.99 158.61) scale(0.22)" patternUnits="userSpaceOnUse" viewBox="0 0 762.62 1063.56"><rect class="cls-1" width="762.62" height="1063.56"/><polygon class="cls-2" points="394.73 984.37 394.5 1142.77 378.52 1142.75 359.73 1142.74 359.95 984.34 378.75 984.35 394.73 984.37"/><polygon class="cls-2" points="841.84 488.99 841.82 508.74 841.8 528.75 683.4 528.52 683.41 508.5 683.43 488.75 841.84 488.99"/><polygon class="cls-2" points="394.73 -79.19 394.5 79.22 378.52 79.19 359.73 79.19 359.95 -79.22 378.75 -79.2 394.73 -79.19"/><polygon class="cls-2" points="394.73 984.37 394.5 1142.78 377.05 1142.76 359.73 1142.73 359.94 984.34 377.26 984.36 394.73 984.37"/><polygon class="cls-3" points="470.69 489.27 470.68 509.27 470.67 528.27 394.9 528.16 394.8 601.91 377.8 601.89 359.8 601.88 359.9 528.13 285.17 528.01 285.18 509.01 285.19 489.01 359.94 489.13 360.06 416.38 378.06 416.39 395.06 416.42 394.94 489.17 470.69 489.27"/><polygon class="cls-2" points="841.84 488.98 841.83 509.8 841.8 528.75 683.4 528.53 683.41 509.57 683.43 488.75 841.84 488.98"/><polygon class="cls-2" points="79.22 488.99 79.19 508.74 79.19 528.75 -79.22 528.52 -79.2 508.5 -79.19 488.75 79.22 488.99"/><polygon class="cls-2" points="199.13 528.96 160.89 528.91 160.95 488.86 199.18 488.92 199.13 528.96"/><polygon class="cls-2" points="596.13 528.99 557.89 528.93 557.95 488.89 596.18 488.94 596.13 528.99"/><polygon class="cls-2" points="394.52 303.24 359.8 303.19 359.85 268.47 394.56 268.52 394.52 303.24"/><polygon class="cls-2" points="394.66 202.55 359.94 202.5 359.99 167.78 394.7 167.83 394.66 202.55"/><polygon class="cls-2" points="394.87 765.25 360.15 765.2 360.2 730.49 394.92 730.53 394.87 765.25"/><polygon class="cls-2" points="394.73 869.54 360.01 869.5 360.06 834.78 394.77 834.83 394.73 869.54"/><polygon class="cls-2" points="79.22 488.98 79.2 509.8 79.19 528.75 -79.22 528.53 -79.2 509.57 -79.19 488.75 79.22 488.98"/><polygon class="cls-2" points="394.73 -79.19 394.5 79.22 377.05 79.2 359.73 79.18 359.94 -79.22 377.26 -79.2 394.73 -79.19"/></pattern></defs><title>pattern</title><rect class="cls-4" y="3.66" width="931" height="764.34"/><rect class="cls-5" x="-0.17" width="930.48" height="768"/></svg>