<svg id="Layer_1" data-name="Layer 1" xmlns="http://www.w3.org/2000/svg" xmlns:xlink="http://www.w3.org/1999/xlink" viewBox="0 0 164.24 229.09"><defs><style>.cls-1{fill:#e6e6e6;}.cls-2{clip-path:url(#clip-path);}</style><clipPath id="clip-path"><rect class="cls-1" x="0.01" y="-0.3" width="164.34" height="229.18"/></clipPath></defs><title>pattern</title><rect class="cls-1" x="0.01" y="-0.3" width="164.34" height="229.18"/><g class="cls-2"><polygon class="cls-1" points="85.07 211.82 85.02 245.95 81.58 245.95 77.52 245.94 77.57 211.81 81.62 211.81 85.07 211.82"/><polygon class="cls-1" points="181.41 105.07 181.41 109.33 181.41 113.64 147.27 113.59 147.28 109.28 147.28 105.02 181.41 105.07"/><polygon class="cls-1" points="85.07 -17.36 85.02 16.77 81.58 16.76 77.52 16.76 77.57 -17.37 81.62 -17.37 85.07 -17.36"/><polygon class="cls-1" points="85.07 211.82 85.02 245.95 81.26 245.95 77.52 245.94 77.57 211.81 81.3 211.81 85.07 211.82"/><polygon class="cls-1" points="101.44 105.13 101.43 109.44 101.43 113.53 85.11 113.51 85.08 129.4 81.42 129.4 77.54 129.4 77.56 113.5 61.46 113.48 61.46 109.39 61.46 105.08 77.57 105.1 77.59 89.42 81.47 89.43 85.14 89.43 85.11 105.11 101.44 105.13"/><polygon class="cls-1" points="181.41 105.07 181.41 109.55 181.41 113.64 147.27 113.59 147.28 109.51 147.28 105.02 181.41 105.07"/><polygon class="cls-1" points="17.08 105.07 17.07 109.33 17.07 113.64 -17.06 113.59 -17.06 109.28 -17.06 105.02 17.08 105.07"/><rect class="cls-1" x="34.49" y="105.24" width="8.63" height="8.24" transform="translate(-70.61 148.01) rotate(-89.92)"/><rect class="cls-1" x="120.04" y="105.25" width="8.63" height="8.24" transform="translate(14.81 233.57) rotate(-89.92)"/><rect class="cls-1" x="77.54" y="57.56" width="7.48" height="7.48" transform="translate(19.87 142.5) rotate(-89.92)"/><rect class="cls-1" x="77.57" y="35.86" width="7.48" height="7.48" transform="translate(41.6 120.86) rotate(-89.92)"/><rect class="cls-1" x="77.62" y="157.11" width="7.48" height="7.48" transform="translate(-79.61 241.99) rotate(-89.92)"/><rect class="cls-1" x="77.59" y="179.59" width="7.48" height="7.48" transform="translate(-102.11 264.4) rotate(-89.92)"/><polygon class="cls-1" points="17.08 105.07 17.07 109.55 17.07 113.64 -17.06 113.59 -17.06 109.51 -17.06 105.02 17.08 105.07"/><polygon class="cls-1" points="85.07 -17.37 85.02 16.77 81.26 16.77 77.52 16.76 77.57 -17.37 81.3 -17.37 85.07 -17.37"/></g></svg>