<svg xmlns="http://www.w3.org/2000/svg" xmlns:xlink="http://www.w3.org/1999/xlink" viewBox="0 0 125.59 125.59"><defs><style>.cls-1{fill:none;}.cls-2{fill:#ffd500;}.cls-3{clip-path:url(#clip-path);}.cls-4{fill:#fff;}.cls-5{fill:#2b2b2b;stroke:#2b2b2b;stroke-miterlimit:10;}</style><clipPath id="clip-path"><circle class="cls-1" cx="62.79" cy="62.79" r="62.79"/></clipPath></defs><title>Pravni deo 2</title><g id="Layer_2" data-name="Layer 2"><g id="Layer_1-2" data-name="Layer 1"><circle class="cls-2" cx="62.79" cy="62.79" r="62.79"/><g class="cls-3"><rect class="cls-4" x="58.26" y="-4.22" width="9.2" height="140.03" transform="translate(-28.11 63.72) rotate(-45)"/><rect class="cls-4" x="58.99" y="-4.22" width="9.2" height="140.03" transform="translate(62.03 157.28) rotate(-135)"/></g><path class="cls-5" d="M28.2,72.32l12.06,8.5h0a4.28,4.28,0,0,0,3,6.83A4.31,4.31,0,0,0,44.54,93a4.26,4.26,0,0,0,4.38.42,4.3,4.3,0,0,0,1.58,2.33,4.16,4.16,0,0,0,4.14.51,4.3,4.3,0,0,0,1.62,2.48,4.2,4.2,0,0,0,4.82.16,7.48,7.48,0,0,0,3.5.86,7.34,7.34,0,0,0,3.55-.87,3.84,3.84,0,0,0,2-2.62A6.29,6.29,0,0,0,76.5,95a4.84,4.84,0,0,0,1.71-3.64v-.08a6.26,6.26,0,0,0,6.47-1.16,5.53,5.53,0,0,0,2-4.66,6.3,6.3,0,0,0,8.66-6.21,5.51,5.51,0,0,0-.1-.79l6-2.67,1.1,2.63,14.81-6.27L101.69,33.18,86.1,39.77l1.26,3-19.8-5.36-9.51,4.22-19.23-1.4,1.58-4.77-15.18-5L12.08,70.18l15.17,5ZM42,82.12l1.46-2a2.13,2.13,0,0,1,3-.44,2.11,2.11,0,0,1,.71,2.5L45.07,85a2.18,2.18,0,0,1-2.61.09A2.13,2.13,0,0,1,42,82.12Zm3.82,9.12a2.15,2.15,0,0,1-.45-3l4.76-6.44a2.13,2.13,0,0,1,3.43,2.53l-4.76,6.44A2.18,2.18,0,0,1,45.83,91.24Zm6,2.75a2.14,2.14,0,0,1-.47-2.94l3.6-4.87a2.13,2.13,0,0,1,3.4,2.55c-.08.11-3.72,5-3.55,4.81A2.17,2.17,0,0,1,51.79,94Zm5.76,3a2.12,2.12,0,0,1-.6-2.72l2.67-3.62a2.1,2.1,0,0,1,2.81-.26,2.12,2.12,0,0,1,.44,3l-2.34,3.17A2.17,2.17,0,0,1,57.55,97Zm9.51,0a5.64,5.64,0,0,1-4.35.25l1.91-2.59a4.32,4.32,0,0,0,.76-1.78l2.31,2.07a1,1,0,0,1,.33.72A1.56,1.56,0,0,1,67.06,97ZM89,40.93l11.54-4.88L114.3,70.94l-10.85,4.58L93.58,52,90.05,43.5h0ZM67.74,39.71l20.69,5.61,3,7.13,8.87,21.32-6.21,2.78L67.47,51.72l-7.42,1.59-2.51,5.32a3.83,3.83,0,0,1-7.21-2.47l2.15-9.68ZM53.82,43.5,50.6,44.93,48.2,55.69a6,6,0,0,0,11.3,3.87l2.06-4.34,5.26-1.14L93,78.52a4.28,4.28,0,0,1,.13.81,4.15,4.15,0,0,1-6.81,3.41L71.05,69.61l-1.43,1.64,13.76,12.1a3.34,3.34,0,0,1-.13,5.09,4.16,4.16,0,0,1-5.43.1l-12.73-11-1.42,1.64c1.17,1-4.25-3.71,11.47,10a2.71,2.71,0,0,1-.09,4.11,4.15,4.15,0,0,1-5.47.14L66.4,90.85h0l-3.76-3.27-.33.39a4.2,4.2,0,0,0-1.17-.18,2.51,2.51,0,0,0-.27,0A4.32,4.32,0,0,0,59.17,84a4.09,4.09,0,0,0-3-.78,4.29,4.29,0,0,0-7-3.47,4.24,4.24,0,0,0-1.41-1.81,4.3,4.3,0,0,0-6,.9l-.16.23-12.65-8.9,9.2-27.81Zm-39,25.3L26.6,33.19l11,3.65L25.87,72.45Z"/></g></g></svg>