<svg xmlns="http://www.w3.org/2000/svg" viewBox="0 0 125.59 125.59"><defs><style>.cls-1{fill:#ffd500;}.cls-2{fill:#2b2b2b;}.cls-3{fill:#fff;}</style></defs><title>Pravni deo 1</title><g id="Layer_2" data-name="Layer 2"><g id="Layer_1-2" data-name="Layer 1"><circle class="cls-1" cx="62.79" cy="62.79" r="62.79"/><circle class="cls-2" cx="77.27" cy="33.16" r="1.57"/><path class="cls-2" d="M93.27,86.33,84.2,70.61h2.31a1.57,1.57,0,1,0,0-3.14H67.83a5.44,5.44,0,0,0-3.42-3.42V54.89h.93a13,13,0,0,0,12.94-13v-.83a1.79,1.79,0,0,1,1.3-1.57c1.57-.65,6-2.59,6.19-2.68a1.71,1.71,0,0,0,.93-1,1.3,1.3,0,0,0-.19-1.29,54.17,54.17,0,0,0-4.43-6.29,7,7,0,0,0-5-2.13,6.4,6.4,0,0,0-4.81,2.22,15.15,15.15,0,0,0-1.85,2.77,10.09,10.09,0,0,1-.64,1C67.19,29.74,57,20.21,55.72,18.92a3,3,0,0,0-3.42-.65,3.22,3.22,0,0,0-2,3V24c-2.22-1.48-4.53-3.14-6.84-5a3.41,3.41,0,0,0-5.64,2.59v9.71c0,6.1,3,11.28,7.67,13.32h.1l3.14,1.2c-1.2.28-2.59.46-4.07.65a1.62,1.62,0,0,0-1.38,1.75,17.12,17.12,0,0,0,7.12,12.49,19.27,19.27,0,0,0,6.19,3h.37a1.58,1.58,0,0,0,1.48-1l2.78-6.47v7.67a5.5,5.5,0,0,0-3.43,3.42H39a1.58,1.58,0,0,0,0,3.15h2.41L32.32,86.15a1.89,1.89,0,0,0-.18,1.2,1.94,1.94,0,0,0,.74,1A23,23,0,0,0,44,91.23a23.3,23.3,0,0,0,11.1-2.86,1.45,1.45,0,0,0,.74-1,1.4,1.4,0,0,0-.18-1.2L46.56,70.43H57.75a5.5,5.5,0,0,0,3.43,3.42V96.14H49.25A6.83,6.83,0,0,0,42.4,103v3A1.55,1.55,0,0,0,44,107.6H81.52A1.55,1.55,0,0,0,83.09,106v-3a6.82,6.82,0,0,0-6.84-6.84H64.41V74a5.44,5.44,0,0,0,3.42-3.42H79L70,86.33a1.85,1.85,0,0,0-.18,1.21,1.61,1.61,0,0,0,.74,1,23,23,0,0,0,11.09,2.87,23.31,23.31,0,0,0,11.1-2.87,1.41,1.41,0,0,0,.74-1A1.92,1.92,0,0,0,93.27,86.33Zm-49.2,1.85a18.88,18.88,0,0,1-8-1.75l8-13.88,8,13.88A19.16,19.16,0,0,1,44.07,88.18ZM80,103v1.48H45.64V103a3.61,3.61,0,0,1,3.61-3.61H76.34A3.61,3.61,0,0,1,80,103ZM53.59,21.32c1.76,1.76,11.75,11.1,14.06,13.32h0Q65,33,62.1,31.31c-2.68-1.57-5.55-3.24-8.51-5.18Zm5.64,31.26L56,60.16c-2.5-1-8-3.79-9.34-10.63a40.59,40.59,0,0,0,7.86-1.85,1.6,1.6,0,0,0,1.11-1.48,1.69,1.69,0,0,0-1-1.57l-7.86-3c-4.16-1.85-5.64-6.75-5.64-10.36V21.6c0-.09,0-.19.18-.19a.32.32,0,0,1,.28.1,162.46,162.46,0,0,0,19,12.57c2.31,1.39,4.53,2.69,6.47,4A1.53,1.53,0,0,0,68.85,38a17.82,17.82,0,0,0,4.35-5.18,16.56,16.56,0,0,1,1.57-2.31,3.07,3.07,0,0,1,2.31-1.11,4.14,4.14,0,0,1,2.68,1.2,28.88,28.88,0,0,1,3,4.07c-1.48.65-3.51,1.48-4.44,1.85A4.92,4.92,0,0,0,75.05,41v.83a9.71,9.71,0,0,1-9.71,9.71H60.71A1.93,1.93,0,0,0,59.23,52.58Zm22.38,35.6a18.86,18.86,0,0,1-8-1.75l8-13.88,8,13.88A18.88,18.88,0,0,1,81.61,88.18Z"/><path class="cls-3" d="M67.65,34.64c-2.31-2.22-12.3-11.56-14.06-13.32v4.81c3,1.94,5.83,3.61,8.51,5.18Q65,33,67.65,34.64Z"/><path class="cls-3" d="M75,41.85V41a4.93,4.93,0,0,1,3.24-4.53c.93-.37,3-1.2,4.44-1.85a29.7,29.7,0,0,0-3-4.07A4.16,4.16,0,0,0,77,29.37a3.06,3.06,0,0,0-2.31,1.11,17.59,17.59,0,0,0-1.58,2.31A17.75,17.75,0,0,1,68.77,38a1.53,1.53,0,0,1-1.85.09c-1.94-1.29-4.16-2.59-6.47-4a162.46,162.46,0,0,1-19-12.57.34.34,0,0,0-.28-.1c-.19,0-.19.1-.19.19v9.71c0,3.61,1.48,8.51,5.65,10.36l7.86,3a1.7,1.7,0,0,1,1,1.57,1.58,1.58,0,0,1-1.11,1.48,40.35,40.35,0,0,1-7.86,1.85c1.39,6.84,6.85,9.61,9.34,10.63l3.24-7.58a1.92,1.92,0,0,1,1.48-1h4.62A9.7,9.7,0,0,0,75,41.85Zm2.22-10.26a1.57,1.57,0,1,1-1.57,1.57A1.57,1.57,0,0,1,77.18,31.59Z"/></g></g></svg>