<svg xmlns="http://www.w3.org/2000/svg" xmlns:xlink="http://www.w3.org/1999/xlink" viewBox="0 0 128.48 127.53"><defs><style>.cls-1{fill:none;}.cls-2{fill:#ffd500;}.cls-3{clip-path:url(#clip-path);}.cls-4{fill:#2b2b2b;}.cls-5{fill:#fff;}</style><clipPath id="clip-path"><circle class="cls-1" cx="65.68" cy="64.74" r="62.79"/></clipPath></defs><title>Pravni deo 3</title><g id="Layer_2" data-name="Layer 2"><g id="Layer_1-2" data-name="Layer 1"><circle class="cls-2" cx="65.68" cy="64.74" r="62.79"/><g class="cls-3"><path class="cls-4" d="M54.4,43.15a1.6,1.6,0,0,0,.93-.29L100.66,11a1.64,1.64,0,1,0-1.87-2.69L53.46,40.17a1.64,1.64,0,0,0,.94,3Z"/><path class="cls-4" d="M41.19,53.25a1.25,1.25,0,0,0,.51.1,1.64,1.64,0,0,0,1.63-1.49L48.11,1.07c-1.23-1.85-3.2-1-3.34.41L40.08,51.4A1.79,1.79,0,0,0,41.19,53.25Z"/><path class="cls-4" d="M77.64,40.89a1.65,1.65,0,0,0,1.64,1.6h0l47.55-1.08a1.64,1.64,0,1,0-.07-3.27L79.25,39.22A1.64,1.64,0,0,0,77.64,40.89Z"/><path class="cls-4" d="M55.27,88.34a1.66,1.66,0,0,0-1.67-1.6L1.6,88a1.64,1.64,0,0,0,0,3.28h0l52-1.28A1.64,1.64,0,0,0,55.27,88.34Z"/><path class="cls-4" d="M91.37,76.39a1.64,1.64,0,0,0-1.79,1.47l-4.64,47.88a1.64,1.64,0,0,0,1.48,1.79h.15a1.63,1.63,0,0,0,1.63-1.48l4.65-47.87A1.64,1.64,0,0,0,91.37,76.39Z"/><path class="cls-4" d="M76,86.62,30.91,118.26a1.64,1.64,0,0,0,.94,3,1.67,1.67,0,0,0,.93-.29L77.91,89.31A1.64,1.64,0,1,0,76,86.62Z"/><path class="cls-4" d="M124.19,90.49,99.55,53.77a1.64,1.64,0,0,0-2.7,1.87L121.5,92.36a1.64,1.64,0,0,0,2.69-1.87Z"/><path class="cls-4" d="M33.17,76.41a1.6,1.6,0,0,0,.93-.29,1.64,1.64,0,0,0,.41-2.28L5.87,31.76a1.64,1.64,0,1,0-2.69,1.87L31.82,75.71A1.63,1.63,0,0,0,33.17,76.41Z"/><path class="cls-4" d="M67.66,60.3a2.86,2.86,0,0,1,2.66-2.86,8.56,8.56,0,0,0-4.64-1.36,8.65,8.65,0,1,0,7.7,4.71,2.88,2.88,0,0,1-5.72-.49Z"/><path class="cls-4" d="M65.69,48.68h0c-16.79,0-28.64,14.41-29.14,15l-.84,1,.84,1c.5.61,12.35,15,29.14,15h0c16.79,0,28.64-14.41,29.14-15l.83-1-.83-1C94.33,63.09,82.48,48.69,65.69,48.68ZM78.46,64.74A12.78,12.78,0,0,1,65.71,77.51h0a12.78,12.78,0,0,1,0-25.56h0A12.79,12.79,0,0,1,78.46,64.74ZM40,64.74a45.57,45.57,0,0,1,12.88-9.65,15.94,15.94,0,0,0,0,19.28A46,46,0,0,1,40,64.74Zm38.5,9.63a15.93,15.93,0,0,0,0-19.26,45.39,45.39,0,0,1,12.86,9.63A45.78,45.78,0,0,1,78.5,74.37Z"/></g><path class="cls-5" d="M40.09,64.74A45.71,45.71,0,0,0,53,74.37a15.92,15.92,0,0,1,0-19.28A45.48,45.48,0,0,0,40.09,64.74Z"/><path class="cls-5" d="M78.58,55.11a15.93,15.93,0,0,1,0,19.26,46,46,0,0,0,12.87-9.63A45.63,45.63,0,0,0,78.58,55.11Z"/><circle class="cls-5" cx="70.78" cy="60.11" r="3.85"/></g></g></svg>